<?xml version="1.0" encoding="utf-8"?>
<!-- Generator: Adobe Illustrator 14.0.0, SVG Export Plug-In . SVG Version: 6.00 Build 43363)  -->
<!DOCTYPE svg PUBLIC "-//W3C//DTD SVG 1.1//EN" "http://www.w3.org/Graphics/SVG/1.1/DTD/svg11.dtd">
<svg version="1.1" id="Layer_1" xmlns="http://www.w3.org/2000/svg" xmlns:xlink="http://www.w3.org/1999/xlink" x="0px" y="0px"
	 width="150px" height="150px" viewBox="0 0 150 150" enable-background="new 0 0 150 150" xml:space="preserve">
<g>
	<path fill="#62BB46" d="M45.277,58.1L45.277,58.1c0.003,0,0.003,0,0.003,0c15.093-26.14,48.52-35.096,74.661-20.004
		c8.086,4.67,14.531,11.094,19.123,18.517c10.256,16.562,11.305,38.092,0.881,56.145l0,0c20.699-35.853,8.414-81.694-27.43-102.393
		C87.116-4.296,54.641,4.403,39.98,29.8c-9.167,15.877-9.2,34.523-1.729,49.853c1.315,2.701,2.868,5.299,4.639,7.761
		C39.387,78.114,39.919,67.377,45.277,58.1L45.277,58.1z"/>
	<path fill="#008348" d="M74.96,109.354L74.96,109.354h-0.004c-30.186,0-54.656-24.472-54.656-54.656
		c0-9.339,2.347-18.129,6.475-25.819C35.993,11.715,54.112,0.046,74.96,0.044l0,0C33.562,0.044,0,33.604,0,74.999
		c0,29.324,23.772,53.097,53.095,53.097c18.337,0,34.5-9.298,44.041-23.431c1.682-2.491,3.156-5.131,4.402-7.897
		C95.237,104.449,85.673,109.354,74.96,109.354L74.96,109.354z"/>
	<path fill="#D31145" d="M103.075,57.811L103.075,57.811L103.075,57.811c15.09,26.141,6.135,59.566-20.006,74.66
		c-8.088,4.67-16.875,7.033-25.597,7.301c-19.472,0.602-38.64-9.254-49.063-27.309l0,0c20.699,35.854,66.54,48.137,102.393,27.439
		c25.395-14.665,34.096-47.137,19.432-72.529c-9.168-15.879-25.299-25.23-42.309-26.425c-3-0.21-6.025-0.167-9.04,0.139
		C88.687,42.701,97.72,48.532,103.075,57.811L103.075,57.811z"/>
</g>
</svg>
