<?xml version="1.0" encoding="utf-8"?>
<!-- Generator: Adobe Illustrator 14.0.0, SVG Export Plug-In . SVG Version: 6.00 Build 43363)  -->
<!DOCTYPE svg PUBLIC "-//W3C//DTD SVG 1.1//EN" "http://www.w3.org/Graphics/SVG/1.1/DTD/svg11.dtd">
<svg version="1.1" id="Layer_1" xmlns="http://www.w3.org/2000/svg" xmlns:xlink="http://www.w3.org/1999/xlink" x="0px" y="0px"
	 width="25px" height="32px" viewBox="0 0 25 32" enable-background="new 0 0 25 32" xml:space="preserve">
<path fill="#FFFFFF" d="M0.256,19.255c0-1.991,0.475-3.871,1.32-5.534c0.26-0.554,0.553-1.11,0.874-1.662
	c1.222-1.458,3.078-2.621,4.713-2.621c3.059,0,5.436,2.332,5.779,5.298l3.919,0.794c-0.02-5.325-3.691-9.976-8.245-11.302
	c2.176-2.25,3.93-3.729,3.93-3.729s7.22,6.352,10.52,12.566c0.589,1.002,1.039,2.094,1.324,3.251
	c0.231,0.942,0.354,1.925,0.354,2.937c0,4.815-2.78,8.982-6.821,10.981c1.405-0.946,2.331-2.553,2.331-4.376
	c0-3.044-1.697-3.944-3.139-5.634c-0.828-0.967-2.133-2.175-2.133-2.175s-1.305,1.208-2.133,2.175
	c-1.441,1.689-3.138,2.59-3.138,5.634c0,2.911,2.359,5.272,5.271,5.272c0.228,0,0.451-0.015,0.672-0.043
	c-1.006,0.269-2.064,0.41-3.154,0.41C5.738,31.5,0.256,26.018,0.256,19.255z"/>
</svg>
