<?xml version="1.0" encoding="utf-8"?>
<!-- Generator: Adobe Illustrator 14.0.0, SVG Export Plug-In . SVG Version: 6.00 Build 43363)  -->
<!DOCTYPE svg PUBLIC "-//W3C//DTD SVG 1.1//EN" "http://www.w3.org/Graphics/SVG/1.1/DTD/svg11.dtd">
<svg version="1.1" id="Layer_1" xmlns="http://www.w3.org/2000/svg" xmlns:xlink="http://www.w3.org/1999/xlink" x="0px" y="0px"
	 width="13px" height="16px" viewBox="0 0 13 16" enable-background="new 0 0 13 16" xml:space="preserve">
<path fill="#ED0000" d="M0.181,9.68c0-1.027,0.245-1.998,0.681-2.856c0.134-0.286,0.286-0.573,0.451-0.857
	c0.631-0.753,1.589-1.353,2.433-1.353c1.579,0,2.805,1.204,2.983,2.735l2.022,0.41c-0.01-2.749-1.905-5.149-4.255-5.833
	C5.619,0.763,6.524,0,6.524,0s3.726,3.278,5.429,6.486c0.304,0.517,0.536,1.081,0.684,1.678c0.119,0.486,0.183,0.994,0.183,1.516
	c0,2.485-1.435,4.637-3.521,5.668c0.726-0.488,1.203-1.317,1.203-2.259c0-1.57-0.876-2.035-1.62-2.907
	C8.455,9.683,7.781,9.059,7.781,9.059s-0.673,0.624-1.101,1.123c-0.744,0.872-1.62,1.337-1.62,2.907c0,1.503,1.218,2.722,2.72,2.722
	c0.117,0,0.233-0.008,0.347-0.022C7.609,15.927,7.063,16,6.5,16C3.01,16,0.181,13.17,0.181,9.68z"/>
</svg>
