<?xml version="1.0" encoding="utf-8"?>
<!-- Generator: Adobe Illustrator 14.0.0, SVG Export Plug-In . SVG Version: 6.00 Build 43363)  -->
<!DOCTYPE svg PUBLIC "-//W3C//DTD SVG 1.1//EN" "http://www.w3.org/Graphics/SVG/1.1/DTD/svg11.dtd">
<svg version="1.1" id="Layer_1" xmlns="http://www.w3.org/2000/svg" xmlns:xlink="http://www.w3.org/1999/xlink" x="0px" y="0px"
	 width="170px" height="45px" viewBox="0 0 170 45" enable-background="new 0 0 170 45" xml:space="preserve">
<g>
	<g>
		<path fill="#62BB46" d="M12.9,16.525L12.9,16.525L12.9,16.525c4.133-7.234,13.288-9.713,20.447-5.536
			c2.215,1.292,3.979,3.07,5.238,5.124c2.809,4.584,3.096,10.542,0.241,15.538l0,0c5.67-9.921,2.305-22.608-7.514-28.336
			c-6.954-4.058-15.848-1.649-19.863,5.378c-2.511,4.395-2.52,9.555-0.474,13.797c0.36,0.748,0.785,1.466,1.271,2.148
			C11.286,22.063,11.433,19.092,12.9,16.525L12.9,16.525z"/>
		<path fill="#008348" d="M21.027,30.709L21.027,30.709L21.027,30.709c-8.267,0-14.968-6.771-14.968-15.125
			c0-2.585,0.643-5.018,1.773-7.146c2.524-4.75,7.485-7.98,13.195-7.98l0,0C9.69,0.458,0.5,9.745,0.5,21.202
			c0,8.115,6.511,14.693,14.541,14.693c5.021,0,9.448-2.572,12.062-6.484c0.46-0.688,0.864-1.42,1.204-2.186
			C26.581,29.352,23.961,30.709,21.027,30.709L21.027,30.709z"/>
		<path fill="#D31145" d="M28.728,16.444L28.728,16.444C28.728,16.445,28.728,16.445,28.728,16.444
			c4.134,7.236,1.681,16.486-5.479,20.662c-2.215,1.293-4.621,1.947-7.01,2.021c-5.333,0.166-10.583-2.561-13.438-7.557l0,0
			c5.669,9.922,18.224,13.32,28.042,7.592c6.954-4.057,9.337-13.043,5.322-20.071c-2.511-4.395-6.928-6.982-11.587-7.313
			c-0.822-0.059-1.65-0.046-2.477,0.038C24.788,12.263,27.261,13.876,28.728,16.444L28.728,16.444z"/>
	</g>
	<g>
		<path fill="#231F20" d="M60.652,38.172h2.556v3.26c-0.938,0.41-1.868,0.615-2.791,0.617c-1.26,0-2.268-0.371-3.023-1.113
			c-0.752-0.744-1.128-1.662-1.128-2.754c0-1.148,0.39-2.104,1.171-2.867c0.781-0.764,1.761-1.146,2.938-1.146
			c0.428,0,0.835,0.049,1.22,0.145c0.386,0.092,0.872,0.262,1.461,0.512v1.123c-0.908-0.533-1.809-0.799-2.703-0.799
			c-0.832,0-1.534,0.287-2.104,0.859s-0.855,1.275-0.855,2.109c0,0.873,0.285,1.588,0.855,2.141c0.57,0.555,1.305,0.832,2.202,0.832
			c0.437,0,0.958-0.102,1.563-0.303l0.104-0.033V39.15h-1.466V38.172L60.652,38.172z"/>
		<path fill-rule="evenodd" clip-rule="evenodd" fill="#231F20" d="M67.318,36.883c0.763,0,1.396,0.25,1.902,0.748
			c0.505,0.496,0.757,1.121,0.757,1.873c0,0.73-0.255,1.338-0.767,1.822c-0.512,0.48-1.158,0.721-1.935,0.723
			c-0.751,0-1.38-0.244-1.885-0.734s-0.758-1.104-0.758-1.838c0-0.742,0.254-1.357,0.763-1.85
			C65.906,37.131,66.548,36.883,67.318,36.883L67.318,36.883z M67.263,37.787c-0.476,0-0.866,0.156-1.171,0.473
			c-0.306,0.316-0.457,0.717-0.457,1.205c0,0.484,0.155,0.881,0.469,1.189c0.312,0.305,0.713,0.457,1.204,0.457
			c0.486,0,0.884-0.154,1.192-0.463c0.313-0.311,0.469-0.709,0.469-1.193c0-0.48-0.162-0.879-0.484-1.195
			C68.161,37.943,67.754,37.787,67.263,37.787L67.263,37.787z"/>
		<path fill-rule="evenodd" clip-rule="evenodd" fill="#231F20" d="M71.293,34.268h0.991v2.99c0.428-0.316,0.886-0.475,1.373-0.475
			c0.636,0,1.156,0.244,1.559,0.727c0.403,0.486,0.605,1.107,0.605,1.867c0,0.816-0.242,1.465-0.725,1.949
			c-0.479,0.48-1.122,0.721-1.929,0.723c-0.324,0-0.665-0.035-1.024-0.105c-0.356-0.07-0.639-0.158-0.849-0.266V34.268
			L71.293,34.268z M72.284,38.215v2.742c0.337,0.104,0.685,0.154,1.04,0.154c0.44,0,0.798-0.158,1.075-0.473
			c0.279-0.316,0.418-0.723,0.419-1.217c0-0.504-0.132-0.912-0.393-1.229c-0.259-0.314-0.596-0.473-1.014-0.473
			C73.042,37.721,72.665,37.885,72.284,38.215L72.284,38.215z"/>
		<path fill-rule="evenodd" clip-rule="evenodd" fill="#231F20" d="M77.687,34.764c0.162,0,0.302,0.057,0.419,0.17
			c0.116,0.115,0.174,0.254,0.174,0.418c0,0.162-0.058,0.301-0.174,0.42c-0.117,0.117-0.257,0.176-0.419,0.176
			c-0.153,0-0.288-0.059-0.404-0.176c-0.116-0.121-0.174-0.262-0.174-0.42c0-0.154,0.058-0.289,0.174-0.406
			C77.398,34.824,77.534,34.764,77.687,34.764L77.687,34.764z M77.195,36.895h0.992v5.064h-0.992V36.895L77.195,36.895z"/>
		<path fill-rule="evenodd" clip-rule="evenodd" fill="#231F20" d="M84.15,39.516h-3.525c0.025,0.484,0.185,0.869,0.479,1.156
			c0.298,0.285,0.681,0.43,1.149,0.43c0.654,0,1.257-0.207,1.809-0.617v0.979c-0.304,0.207-0.608,0.354-0.909,0.441
			c-0.299,0.088-0.648,0.133-1.051,0.133c-0.553,0-1-0.115-1.341-0.348c-0.342-0.23-0.616-0.541-0.823-0.93
			c-0.203-0.393-0.305-0.846-0.305-1.359c0-0.771,0.216-1.398,0.649-1.879c0.432-0.484,0.992-0.727,1.683-0.727
			c0.665,0,1.195,0.234,1.591,0.705c0.396,0.469,0.593,1.1,0.594,1.889V39.516L84.15,39.516z M80.646,38.914h2.523
			c-0.025-0.398-0.144-0.707-0.354-0.924c-0.21-0.217-0.494-0.326-0.85-0.326c-0.356,0-0.648,0.109-0.877,0.326
			C80.863,38.207,80.715,38.516,80.646,38.914L80.646,38.914z"/>
		<path fill="#231F20" d="M86.545,36.895v1.162l0.055-0.09c0.48-0.781,0.959-1.172,1.438-1.172c0.375,0,0.766,0.191,1.172,0.572
			l-0.523,0.881c-0.344-0.33-0.664-0.496-0.957-0.496c-0.32,0-0.6,0.156-0.834,0.463c-0.234,0.309-0.35,0.674-0.35,1.096v2.648
			h-0.998v-5.064H86.545L86.545,36.895z"/>
		<path fill="#231F20" d="M91.152,36.895v0.643c0.441-0.494,0.945-0.742,1.508-0.742c0.313,0,0.604,0.082,0.873,0.248
			c0.268,0.162,0.471,0.385,0.609,0.672c0.143,0.281,0.213,0.732,0.213,1.35v2.895h-0.992v-2.885c0-0.518-0.078-0.887-0.234-1.107
			c-0.156-0.223-0.418-0.334-0.785-0.336c-0.469,0-0.865,0.238-1.191,0.711v3.617h-1.014v-5.064H91.152L91.152,36.895z"/>
		<path fill-rule="evenodd" clip-rule="evenodd" fill="#231F20" d="M98.395,36.883c0.764,0,1.396,0.25,1.902,0.748
			c0.504,0.496,0.758,1.121,0.758,1.873c0,0.73-0.256,1.338-0.77,1.822c-0.512,0.48-1.156,0.721-1.934,0.723
			c-0.752,0-1.381-0.244-1.887-0.734c-0.504-0.49-0.756-1.104-0.756-1.838c0-0.742,0.254-1.357,0.762-1.85
			C96.984,37.131,97.625,36.883,98.395,36.883L98.395,36.883z M98.34,37.787c-0.477,0-0.867,0.156-1.17,0.473
			c-0.307,0.316-0.459,0.717-0.459,1.205c0,0.484,0.156,0.881,0.469,1.189c0.313,0.305,0.715,0.457,1.205,0.457
			c0.484,0,0.883-0.154,1.193-0.463c0.311-0.311,0.467-0.709,0.467-1.193c0-0.48-0.16-0.879-0.484-1.195S98.83,37.787,98.34,37.787
			L98.34,37.787z"/>
		<path fill-rule="evenodd" clip-rule="evenodd" fill="#231F20" d="M108.436,36.895h1.875v7.648h-0.992v-2.672
			c-0.434,0.117-0.797,0.176-1.096,0.178c-0.711,0-1.299-0.244-1.764-0.729s-0.699-1.1-0.699-1.844c0-0.789,0.242-1.418,0.725-1.883
			C106.969,37.127,107.619,36.895,108.436,36.895L108.436,36.895z M109.318,41.002V37.83h-0.627c-0.428,0-0.715,0.02-0.859,0.061
			c-0.143,0.037-0.266,0.09-0.371,0.16c-0.105,0.066-0.201,0.148-0.289,0.248c-0.273,0.311-0.408,0.697-0.408,1.156
			c0,0.518,0.152,0.941,0.457,1.271c0.309,0.326,0.707,0.49,1.193,0.49c0.111,0,0.205-0.008,0.277-0.023
			c0.072-0.014,0.232-0.063,0.48-0.148l0.076-0.021L109.318,41.002L109.318,41.002z"/>
		<path fill="#231F20" d="M115.102,41.959v-0.645c-0.211,0.232-0.453,0.412-0.725,0.541c-0.27,0.127-0.537,0.191-0.807,0.193
			c-0.316,0-0.609-0.08-0.877-0.238c-0.266-0.162-0.467-0.377-0.605-0.648c-0.133-0.275-0.201-0.73-0.201-1.367v-2.9h0.992v2.891
			c0,0.531,0.074,0.904,0.223,1.117c0.152,0.209,0.418,0.314,0.795,0.314c0.473,0,0.875-0.234,1.205-0.699v-3.623h0.992v5.064
			H115.102L115.102,41.959z"/>
		<path fill-rule="evenodd" clip-rule="evenodd" fill="#231F20" d="M122.02,39.516h-3.525c0.023,0.484,0.186,0.869,0.479,1.156
			c0.297,0.285,0.68,0.43,1.15,0.43c0.652,0,1.256-0.207,1.809-0.617v0.979c-0.305,0.207-0.609,0.354-0.91,0.441
			c-0.297,0.088-0.648,0.133-1.051,0.133c-0.553,0-1-0.115-1.342-0.348c-0.342-0.23-0.615-0.541-0.822-0.93
			c-0.203-0.393-0.305-0.846-0.305-1.359c0-0.771,0.215-1.398,0.646-1.879c0.434-0.484,0.994-0.727,1.686-0.727
			c0.664,0,1.193,0.234,1.59,0.705c0.396,0.469,0.596,1.1,0.596,1.889V39.516L122.02,39.516z M118.514,38.914h2.523
			c-0.025-0.398-0.143-0.707-0.354-0.924s-0.494-0.326-0.85-0.326c-0.357,0-0.648,0.109-0.877,0.326
			C118.73,38.207,118.584,38.516,118.514,38.914L118.514,38.914z"/>
		<path fill="#231F20" d="M130.768,40.775v0.992c-0.496,0.188-0.984,0.281-1.459,0.281c-0.785,0-1.412-0.236-1.881-0.707
			c-0.465-0.469-0.697-1.098-0.697-1.887c0-0.797,0.227-1.439,0.682-1.928c0.453-0.488,1.051-0.732,1.793-0.732
			c0.256,0,0.488,0.025,0.691,0.076c0.207,0.049,0.461,0.141,0.762,0.277v1.066c-0.5-0.322-0.965-0.484-1.393-0.484
			c-0.447,0-0.814,0.16-1.102,0.479c-0.287,0.316-0.432,0.721-0.432,1.213c0,0.518,0.154,0.928,0.463,1.232
			c0.314,0.305,0.732,0.457,1.26,0.457C129.836,41.111,130.273,41,130.768,40.775L130.768,40.775z"/>
		<path fill="#231F20" d="M135.348,41.959v-0.645c-0.211,0.232-0.453,0.412-0.725,0.541c-0.27,0.127-0.537,0.191-0.807,0.193
			c-0.316,0-0.609-0.08-0.877-0.238c-0.266-0.162-0.467-0.377-0.605-0.648c-0.135-0.275-0.201-0.73-0.201-1.367v-2.9h0.992v2.891
			c0,0.531,0.074,0.904,0.223,1.117c0.152,0.209,0.418,0.314,0.795,0.314c0.473,0,0.873-0.234,1.205-0.699v-3.623h0.99v5.064
			H135.348L135.348,41.959z"/>
		<path fill="#231F20" d="M142.1,38.281v3.678h-0.996v-2.818c0-0.563-0.074-0.953-0.225-1.174c-0.148-0.223-0.408-0.334-0.777-0.336
			c-0.207,0-0.398,0.049-0.572,0.145c-0.172,0.096-0.367,0.264-0.59,0.506v3.678h-0.99v-5.064h0.99v0.666
			c0.506-0.51,1-0.766,1.482-0.766c0.637,0,1.127,0.305,1.477,0.914c0.531-0.617,1.086-0.926,1.662-0.926
			c0.486,0,0.887,0.182,1.199,0.541c0.316,0.359,0.473,0.908,0.473,1.646v2.988h-0.99v-3c0-0.422-0.086-0.744-0.256-0.969
			c-0.172-0.225-0.416-0.336-0.736-0.336C142.84,37.654,142.455,37.863,142.1,38.281L142.1,38.281z"/>
		<path fill-rule="evenodd" clip-rule="evenodd" fill="#231F20" d="M146.789,44.543v-7.648h1.738c0.889,0,1.582,0.223,2.074,0.672
			c0.498,0.447,0.748,1.072,0.748,1.877c0,0.76-0.234,1.385-0.703,1.871c-0.465,0.49-1.059,0.732-1.781,0.734
			c-0.32,0-0.676-0.072-1.063-0.215v2.709H146.789L146.789,44.543z M148.506,37.83h-0.703v3.117
			c0.305,0.156,0.625,0.236,0.959,0.236c0.465,0,0.844-0.164,1.139-0.49c0.299-0.326,0.445-0.748,0.447-1.262
			c0-0.33-0.072-0.621-0.213-0.875c-0.139-0.254-0.33-0.436-0.572-0.551C149.322,37.889,148.969,37.83,148.506,37.83L148.506,37.83z
			"/>
		<polygon fill="#231F20" points="152.713,34.268 153.705,34.268 153.705,41.959 152.713,41.959 152.713,34.268 		"/>
		<path fill-rule="evenodd" clip-rule="evenodd" fill="#231F20" d="M159.67,39.516h-3.525c0.023,0.484,0.184,0.869,0.477,1.156
			c0.299,0.285,0.682,0.43,1.15,0.43c0.654,0,1.258-0.207,1.809-0.617v0.979c-0.303,0.207-0.607,0.354-0.908,0.441
			c-0.299,0.088-0.65,0.133-1.053,0.133c-0.551,0-0.998-0.115-1.34-0.348c-0.342-0.23-0.615-0.541-0.822-0.93
			c-0.205-0.393-0.307-0.846-0.307-1.359c0-0.771,0.217-1.398,0.648-1.879c0.434-0.484,0.994-0.727,1.684-0.727
			c0.666,0,1.195,0.234,1.592,0.705c0.396,0.469,0.594,1.1,0.596,1.889V39.516L159.67,39.516z M156.164,38.914h2.523
			c-0.025-0.398-0.143-0.707-0.354-0.924s-0.494-0.326-0.852-0.326c-0.355,0-0.646,0.109-0.877,0.326
			C156.381,38.207,156.234,38.516,156.164,38.914L156.164,38.914z"/>
		<path fill-rule="evenodd" clip-rule="evenodd" fill="#231F20" d="M73.181,23.811c0-3.918-3.199-5.313-5.675-5.313
			c-2.979,0-5.718,1.815-5.718,5.292c0,3.209,2.41,5.313,5.718,5.313C69.742,29.102,73.181,27.863,73.181,23.811L73.181,23.811z
			 M69.785,23.723c0,2.236-0.789,3.477-2.279,3.477c-1.205,0-2.322-0.775-2.322-3.41c0-2.303,0.942-3.388,2.322-3.388
			C69.106,20.401,69.785,21.73,69.785,23.723L69.785,23.723z"/>
		<path fill-rule="evenodd" clip-rule="evenodd" fill="#231F20" d="M96.539,18.697h-3.178v15.299h3.178v-5.602
			c0.744,0.441,1.709,0.707,2.607,0.707c3.002,0,4.973-2.146,4.973-5.424c0-2.922-2.059-5.18-4.689-5.18
			c-1.094,0-1.992,0.332-2.891,1.084V18.697L96.539,18.697z M96.539,21.597c0.789-0.62,1.293-0.819,1.971-0.819
			c1.512,0,2.389,1.129,2.389,3.078c0,1.904-0.963,3.1-2.52,3.1c-0.635,0-1.203-0.199-1.84-0.664V21.597L96.539,21.597z"/>
		<path fill-rule="evenodd" clip-rule="evenodd" fill="#231F20" d="M124.613,23.811c0-3.918-3.199-5.313-5.676-5.313
			c-2.98,0-5.719,1.815-5.719,5.292c0,3.209,2.41,5.313,5.719,5.313C121.172,29.102,124.613,27.863,124.613,23.811L124.613,23.811z
			 M121.217,23.723c0,2.236-0.789,3.477-2.279,3.477c-1.205,0-2.322-0.775-2.322-3.41c0-2.303,0.941-3.388,2.322-3.388
			C120.537,20.401,121.217,21.73,121.217,23.723L121.217,23.723z"/>
		<path fill-rule="evenodd" clip-rule="evenodd" fill="#231F20" d="M148.434,18.697h-3.178v10.206h3.178V18.697L148.434,18.697z
			 M146.834,13.604c-0.965,0-1.754,0.797-1.754,1.771c0,0.974,0.789,1.771,1.754,1.771s1.752-0.797,1.752-1.771
			C148.586,14.401,147.799,13.604,146.834,13.604L146.834,13.604z"/>
		<path fill-rule="evenodd" clip-rule="evenodd" fill="#231F20" d="M169.5,23.811c0-3.918-3.199-5.313-5.676-5.313
			c-2.979,0-5.719,1.815-5.719,5.292c0,3.209,2.41,5.313,5.719,5.313C166.061,29.102,169.5,27.863,169.5,23.811L169.5,23.811z
			 M166.104,23.723c0,2.236-0.789,3.477-2.279,3.477c-1.205,0-2.322-0.775-2.322-3.41c0-2.303,0.943-3.388,2.322-3.388
			C165.424,20.401,166.104,21.73,166.104,23.723L166.104,23.723z"/>
		<path fill="#231F20" d="M156.818,19.25c-1.051-0.531-1.992-0.752-3.264-0.752c-2.498,0-4.186,1.262-4.186,3.165
			c0,3.33,5.018,3.066,5.018,4.542c0,0.463-0.592,0.75-1.533,0.75c-1.205,0-2.236-0.42-3.266-0.861v2.256
			c0.439,0.242,1.994,0.752,3.615,0.752c2.631,0,4.119-1.195,4.119-3.314c0-3.397-5.018-3.441-5.018-4.573
			c0-0.723,0.723-0.813,1.141-0.813c0.635,0,1.992,0.271,3.373,1.151V19.25L156.818,19.25z"/>
		<path fill="#231F20" d="M128.861,18.697h-3.178v10.206h3.178v-6.84c0.768-0.93,1.6-1.417,2.432-1.417
			c0.941,0,1.928,0.553,1.928,2.214v6.043h3.178v-6.531c0.723-1.129,1.578-1.727,2.498-1.727c1.16,0,1.863,0.819,1.863,2.281v5.977
			h3.176v-6.553c0-2.324-1.645-3.852-3.943-3.852c-1.512,0-2.674,0.642-3.988,2.17c-0.701-1.462-1.885-2.17-3.637-2.17
			c-0.637,0-1.229,0.11-1.818,0.354c-0.57,0.266-1.141,0.643-1.688,1.151V18.697L128.861,18.697z"/>
		<path fill="#231F20" d="M108.262,18.697h-3.178v10.206h3.178v-4.406c0.701-1.881,1.445-2.988,2.607-2.988
			c0.504,0,1.053,0.222,1.885,0.753l0.875-2.834c-0.92-0.687-1.467-0.93-2.104-0.93c-1.227,0-2.279,0.996-3.219,3.121h-0.045V18.697
			L108.262,18.697z"/>
		<path fill="#231F20" d="M77.142,18.697h-3.177v10.206h3.177v-6.84c0.767-0.93,1.6-1.417,2.432-1.417
			c0.942,0,1.928,0.553,1.928,2.214v6.043h3.178v-6.531c0.722-1.129,1.577-1.727,2.499-1.727c1.16,0,1.861,0.819,1.861,2.281v5.977
			h3.178v-6.553c0-2.324-1.643-3.852-3.943-3.852c-1.512,0-2.675,0.642-3.989,2.17c-0.701-1.462-1.884-2.17-3.637-2.17
			c-0.635,0-1.228,0.11-1.819,0.354c-0.569,0.266-1.139,0.643-1.687,1.151V18.697L77.142,18.697z"/>
		<path fill="#231F20" d="M61.005,24.299c-2.147,1.039-3.462,1.66-5.412,1.66c-3.111,0-5.325-1.926-5.325-4.627
			c0-2.68,2.235-4.583,5.412-4.583c1.841,0,3.506,0.619,5.148,1.55v-3.366c-1.468-0.886-3.33-1.328-5.412-1.328
			c-5.718,0-8.982,3.764-8.982,7.794c0,3.897,2.893,7.704,8.698,7.704c2.213,0,3.791-0.42,5.872-1.504V24.299L61.005,24.299z"/>
	</g>
</g>
</svg>
